# xmcd
#
# Track frame offsets: 
#        150
#        11593
#        23396
#        38851
#        55280
#        67085
#        86244
#        101189
#        115466
#        133607
#        149520
#        162072
#        176885
#        185749
#        200768
#        210756
#        224176
#        232225
#        243738
#        256567
#        267837
#        275265
#        287620
#
# Disc length: 3950 seconds
#
# Revision: 1
# Processed by: cddbd v1.5.2PL0 Copyright (c) Steve Scherf et al.
# Submitted via: ExactAudioCopy v1.0b3
#
DISCID=680f6c17
DTITLE=Jimmie Rodgers - Twilight On The Trail-When The Spirit Moves Yo
DTITLE=u
DYEAR=2010
DGENRE=Country
TTITLE0=Ghost Riders In The Sky
TTITLE1=The Last Round-Up
TTITLE2=High Noon
TTITLE3=Oh! Bury Me Not On The Lone Prairie
TTITLE4=Wagon Wheels
TTITLE5=Cool Water
TTITLE6=Shenandoah
TTITLE7=Empty Saddles
TTITLE8=Red River Valley
TTITLE9=Old Faithful
TTITLE10=TumblingTumbleweeds
TTITLE11=Twilight On The Trail
TTITLE12=Joshua Fit The Battle O' Jericho
TTITLE13=Just A Closer Walk With Thee
TTITLE14=Standin' In The Need Of Prayer
TTITLE15=Swing Low Sweet Chariot
TTITLE16=De Ol' Ark's A-Moverin'
TTITLE17=The Great Gittin' Up Mornin'
TTITLE18=Go Down Moses
TTITLE19=I'm Gonna Walk That Lonesome Valley
TTITLE20=Goin' To Shout All Over God's Heab'n
TTITLE21=Let Us Break Bread Together
TTITLE22=Ev'ry Time I Feel The Spirit
EXTD=
EXTT0=
EXTT1=
EXTT2=
EXTT3=
EXTT4=
EXTT5=
EXTT6=
EXTT7=
EXTT8=
EXTT9=
EXTT10=
EXTT11=
EXTT12=
EXTT13=
EXTT14=
EXTT15=
EXTT16=
EXTT17=
EXTT18=
EXTT19=
EXTT20=
EXTT21=
EXTT22=
PLAYORDER=
